<svg width="16" height="16" viewBox="0 0 16 16" fill="none" xmlns="http://www.w3.org/2000/svg">
  <path d="M2 2h10.08A1.92 1.92 0 0 1 14 3.92v8.16A1.92 1.92 0 0 1 12.08 14H3.92A1.92 1.92 0 0 1 2 12.08V2Z" fill="#639"/>
  <path d="M5.036 11.804V9.788c0-.804.516-1.236 1.296-1.236.768-.012 1.248.492 1.224 1.344h-.888c.024-.324-.12-.564-.36-.552-.3 0-.384.204-.384.588v1.752c0 .372.12.552.384.564.276 0 .384-.276.36-.588h.888c.048.876-.504 1.392-1.284 1.38-.756 0-1.236-.42-1.236-1.236Zm2.844-.144h.828c.012.384.132.624.396.624s.36-.156.36-.516c0-.3-.132-.468-.456-.624L8.696 11c-.552-.264-.78-.588-.78-1.236 0-.72.456-1.224 1.2-1.224s1.14.516 1.152 1.356h-.804c0-.348-.072-.588-.336-.588-.24 0-.36.12-.36.42s.108.42.396.54l.288.132c.612.288.876.66.876 1.356 0 .828-.468 1.284-1.236 1.284s-1.2-.528-1.212-1.38Zm2.712 0h.84c0 .384.132.624.384.624s.36-.156.36-.516c0-.3-.12-.468-.456-.624L11.408 11c-.552-.264-.768-.588-.768-1.236 0-.72.444-1.224 1.2-1.224s1.128.516 1.152 1.356h-.804c-.012-.348-.084-.588-.348-.588-.24 0-.348.12-.348.42s.096.42.384.54l.3.132c.6.288.864.66.864 1.356 0 .828-.468 1.284-1.236 1.284s-1.2-.528-1.212-1.38Z" fill="#fff"/>
</svg>