<svg width="16" height="16" viewBox="0 0 16 16" fill="none" xmlns="http://www.w3.org/2000/svg">
  <path fill-rule="evenodd" clip-rule="evenodd" d="M14 2H2v12h12V2Zm-2.93 5.441a2.14 2.14 0 0 0-.195.007c-.403.035-.78.211-1.037.485a1.45 1.45 0 0 0-.303.51c-.026.079-.04.125-.05.172-.013.07-.013.142-.012.322 0 .389.02.485.152.743.133.26.335.472.627.658.128.081.456.245.724.36.582.253.767.37.852.54l.036.07v.146c0 .142 0 .15-.03.208-.065.135-.22.246-.42.3-.074.02-.109.022-.277.022a.971.971 0 0 1-.28-.022 1.073 1.073 0 0 1-.328-.137 2.079 2.079 0 0 1-.4-.403.378.378 0 0 0-.083-.098c-.014 0-.733.41-.859.49-.042.027-.053.04-.053.061 0 .045.168.299.3.453.268.314.806.591 1.282.66a3.9 3.9 0 0 0 .72.021 2.11 2.11 0 0 0 .443-.083c.563-.165.946-.516 1.088-.995.058-.195.082-.435.063-.638-.04-.416-.167-.71-.42-.964-.234-.237-.555-.427-1.19-.705-.55-.242-.694-.335-.774-.505a.51.51 0 0 1 .031-.473c.1-.146.307-.219.536-.188a.653.653 0 0 1 .487.298c.07.096.119.146.142.146.023 0 .122-.061.43-.266.314-.208.413-.279.42-.3.01-.033-.04-.11-.183-.287-.289-.354-.628-.542-1.064-.589a3.861 3.861 0 0 0-.375-.019Zm-3.467.06H6.72c-1.702.002-2.098.005-2.108.016-.01.01-.013.115-.013.505v.491l1.548.006v2.192c0 1.206.003 2.202.007 2.215l.006.022h.563c.504 0 .563 0 .569-.015.003-.01.006-1.006.006-2.215v-2.2l1.548-.005v-.497c0-.431-.001-.499-.015-.507a44.418 44.418 0 0 0-1.228-.008Z" fill="#0288D1"/>
</svg>